<svg width="22" height="22" viewBox="0 0 22 22" fill="none" xmlns="http://www.w3.org/2000/svg">
<path d="M8.2452 17.4167C8.36584 17.4174 8.48543 17.3942 8.59712 17.3486C8.7088 17.303 8.81038 17.2358 8.89604 17.1508L14.396 11.6508C14.5668 11.4791 14.6626 11.2467 14.6626 11.0046C14.6626 10.7624 14.5668 10.5301 14.396 10.3583L8.89604 4.85833C8.72068 4.70815 8.49511 4.62968 8.2644 4.63859C8.0337 4.6475 7.81486 4.74314 7.6516 4.90639C7.48835 5.06965 7.39271 5.28849 7.3838 5.5192C7.37489 5.7499 7.45336 5.97547 7.60354 6.15083L12.4527 11L7.60354 15.8492C7.47482 15.9768 7.38684 16.1398 7.35074 16.3175C7.31464 16.4951 7.33203 16.6795 7.40071 16.8473C7.46939 17.0151 7.58628 17.1587 7.7366 17.2601C7.88692 17.3614 8.06391 17.4159 8.2452 17.4167Z" fill="#0C0D0D"/>
</svg>
